<svg width="18" height="14" viewBox="0 0 18 14" fill="none" xmlns="http://www.w3.org/2000/svg">
<path fill-rule="evenodd" clip-rule="evenodd" d="M8.43258 0.343876C8.61216 0.275964 8.80585 0.242065 8.99954 0.242065V0.242583C9.49655 0.243078 9.99331 0.467272 10.2514 0.915166L12.7316 5.21585L15.6167 3.862C16.1065 3.63057 16.6832 3.69615 17.1113 4.02207C17.5414 4.35185 17.7516 4.89185 17.6532 5.42606L16.3958 12.4981C16.2743 13.1866 15.6746 13.6899 14.9726 13.6899H3.02515C2.95537 13.6899 2.88658 13.6849 2.81916 13.6752C2.55227 13.6369 2.30679 13.5252 2.1057 13.3596C1.84769 13.1472 1.6624 12.8463 1.59801 12.4981L0.340596 5.42606C0.244169 4.89185 0.45438 4.35185 0.884449 4.02207C1.00906 3.92763 1.14598 3.85521 1.28949 3.80557C1.44361 3.75206 1.60527 3.72504 1.76745 3.72504C1.97573 3.72504 2.18595 3.76939 2.38073 3.86197L5.26457 5.21521L7.74433 0.915166C7.90246 0.640786 8.15015 0.450357 8.43258 0.343876Z" fill="#FFC107"/>
</svg>
