<svg width="30" height="22" viewBox="0 0 30 22" fill="none" xmlns="http://www.w3.org/2000/svg">
<path fill-rule="evenodd" clip-rule="evenodd" d="M6.1274 11.3758C6.28833 11.2984 6.46868 11.2598 6.64902 11.2598V11.2603C7.02966 11.2607 7.41009 11.4334 7.60778 11.7786L9.50715 15.0927L11.7167 14.0494C12.0918 13.8711 12.5334 13.9216 12.8613 14.1728C13.1907 14.4269 13.3517 14.843 13.2764 15.2547L12.3134 20.7044C12.2203 21.235 11.761 21.6229 11.2234 21.6229H2.07361C1.53748 21.6229 1.07814 21.235 0.980662 20.7044L0.0176844 15.2547C-0.0561636 14.843 0.104824 14.4269 0.434187 14.1728C0.5068 14.1174 0.58487 14.0719 0.666465 14.0364C0.807311 13.9749 0.958569 13.9438 1.11042 13.9438C1.26993 13.9438 1.43092 13.9779 1.58009 14.0493L3.7887 15.0921L5.68773 11.7786C5.79223 11.5962 5.94777 11.4619 6.1274 11.3758Z" fill="#FFC107"/>
<path fill-rule="evenodd" clip-rule="evenodd" d="M22.4015 11.3758C22.5624 11.2984 22.7427 11.2598 22.9231 11.2598V11.2603C23.3037 11.2607 23.6841 11.4334 23.8818 11.7786L25.7812 15.0927L27.9907 14.0494C28.3659 13.8711 28.8075 13.9216 29.1354 14.1728C29.4647 14.4269 29.6257 14.843 29.5504 15.2547L28.5874 20.7044C28.4944 21.235 28.035 21.6229 27.4974 21.6229H18.3477C17.8115 21.6229 17.3522 21.235 17.2547 20.7044L16.2917 15.2547C16.2179 14.843 16.3789 14.4269 16.7082 14.1728C16.7808 14.1174 16.8589 14.0719 16.9405 14.0364C17.0814 13.9749 17.2326 13.9438 17.3845 13.9438C17.544 13.9438 17.705 13.9779 17.8541 14.0493L20.0627 15.0921L21.9618 11.7786C22.0663 11.5962 22.2218 11.4619 22.4015 11.3758Z" fill="#FFC107"/>
<path fill-rule="evenodd" clip-rule="evenodd" d="M13.9565 0.116001C14.1174 0.0386146 14.2978 0 14.4781 0V0.000517033C14.8588 0.000898406 15.2392 0.173664 15.4369 0.518814L17.3363 3.83295L19.5458 2.78966C19.9209 2.61133 20.3625 2.66186 20.6904 2.91302C21.0198 3.16715 21.1808 3.58327 21.1055 3.99494L20.1425 9.44468C20.0494 9.97524 19.5901 10.3631 19.0525 10.3631H9.90271C9.36658 10.3631 8.90724 9.97524 8.80976 9.44468L7.84679 3.99494C7.77294 3.58327 7.93393 3.16715 8.26329 2.91302C8.3359 2.85764 8.41397 2.81209 8.49557 2.77662C8.63641 2.71513 8.78767 2.684 8.93952 2.684C9.09904 2.684 9.26002 2.71818 9.4092 2.78952L11.6178 3.83236L13.5168 0.518814C13.6213 0.336386 13.7769 0.202114 13.9565 0.116001Z" fill="#FFC107"/>
</svg>
